<?xml version="1.0" encoding="UTF-8" standalone="no"?>
<!DOCTYPE svg PUBLIC "-//W3C//DTD SVG 1.1//EN" "http://www.w3.org/Graphics/SVG/1.1/DTD/svg11.dtd">
<svg width="100%" height="100%" viewBox="0 0 800 800" version="1.1" xmlns="http://www.w3.org/2000/svg" xmlns:xlink="http://www.w3.org/1999/xlink" xml:space="preserve" xmlns:serif="http://www.serif.com/" style="fill-rule:evenodd;clip-rule:evenodd;stroke-linejoin:round;stroke-miterlimit:2;">
    <g>
        <path d="M398.453,10.938C178.422,10.938 0,189.328 0,409.391C0,585.441 114.169,734.797 272.488,787.484C292.4,791.172 299.713,778.841 299.713,768.316C299.713,758.816 299.341,727.425 299.172,694.131C188.319,718.234 164.928,647.119 164.928,647.119C146.803,601.062 120.688,588.819 120.688,588.819C84.538,564.088 123.413,564.594 123.413,564.594C163.425,567.406 184.494,605.656 184.494,605.656C220.031,666.572 277.706,648.959 300.444,638.781C304.019,613.025 314.347,595.45 325.741,585.5C237.241,575.422 144.203,541.256 144.203,388.581C144.203,345.081 159.769,309.534 185.259,281.631C181.122,271.594 167.484,231.069 189.119,176.184C189.119,176.184 222.578,165.475 298.722,217.028C330.503,208.197 364.591,203.772 398.453,203.622C432.316,203.772 466.428,208.197 498.272,217.028C574.325,165.475 607.738,176.184 607.738,176.184C629.425,231.069 615.781,271.594 611.644,281.631C637.191,309.534 652.65,345.078 652.65,388.581C652.65,541.619 559.438,575.319 470.713,585.181C485.003,597.547 497.738,621.797 497.738,658.969C497.738,712.281 497.275,755.191 497.275,768.316C497.275,778.919 504.447,791.344 524.647,787.431C682.878,734.684 796.903,585.381 796.903,409.391C796.903,189.328 618.506,10.938 398.453,10.938" style="fill:white;fill-rule:nonzero;"/>
        <path d="M149.234,578.544C148.359,580.522 145.241,581.116 142.406,579.759C139.516,578.459 137.891,575.759 138.828,573.772C139.688,571.734 142.806,571.166 145.691,572.534C148.587,573.831 150.237,576.556 149.234,578.544M168.834,596.031C166.934,597.794 163.219,596.975 160.697,594.191C158.091,591.412 157.603,587.7 159.531,585.909C161.491,584.15 165.094,584.972 167.706,587.753C170.313,590.563 170.819,594.253 168.831,596.034M182.281,618.406C179.838,620.103 175.844,618.512 173.378,614.969C170.938,611.428 170.938,607.178 173.431,605.475C175.906,603.772 179.837,605.303 182.338,608.819C184.775,612.422 184.775,616.672 182.278,618.409M205.019,644.322C202.834,646.728 198.184,646.084 194.778,642.797C191.297,639.584 190.325,635.025 192.516,632.616C194.725,630.203 199.403,630.881 202.834,634.141C206.294,637.347 207.35,641.941 205.022,644.322M234.406,653.072C233.447,656.191 228.966,657.609 224.453,656.284C219.947,654.919 216.997,651.263 217.906,648.109C218.844,644.969 223.344,643.491 227.891,644.909C232.391,646.269 235.347,649.897 234.409,653.072M267.856,656.781C267.969,660.069 264.141,662.794 259.403,662.853C254.637,662.956 250.784,660.297 250.734,657.066C250.734,653.747 254.475,651.047 259.238,650.969C263.975,650.875 267.856,653.516 267.856,656.781M300.713,655.522C301.281,658.728 297.987,662.022 293.284,662.897C288.659,663.741 284.378,661.763 283.787,658.584C283.213,655.297 286.569,652.006 291.184,651.153C295.897,650.334 300.113,652.263 300.713,655.522" style="fill:white;fill-rule:nonzero;"/>
    </g>
</svg>
